<svg xmlns="http://www.w3.org/2000/svg" width="900" height="463" viewBox="0 0 900 463" role="img" aria-labelledby="title desc">
<title id="title">Variação em 24h: Cartas 90+ no EA FC em 18/06: altas e baixas — PS</title>
<desc id="desc">Gráfico gerado a partir da tabela publicada neste artigo.</desc>
<rect width="100%" height="100%" rx="20" fill="#0f172a"/>
<text x="28" y="42" fill="#f8fafc" font-family="system-ui,sans-serif" font-size="23" font-weight="700">Variação em 24h</text>
<text x="28" y="70" fill="#94a3b8" font-family="system-ui,sans-serif" font-size="15">Dados do recorte publicado no artigo</text>
<text x="28" y="117" fill="#e2e8f0" font-family="system-ui,sans-serif" font-size="16">Endrick</text>
<rect x="285" y="95" width="480" height="28" rx="7" fill="#22c55e"/>
<text x="775" y="116" fill="#f8fafc" font-family="system-ui,sans-serif" font-size="15" font-weight="700">+55.6%</text>
<text x="28" y="175" fill="#e2e8f0" font-family="system-ui,sans-serif" font-size="16">Denise O&#x27;Sullivan</text>
<rect x="285" y="153" width="439" height="28" rx="7" fill="#22c55e"/>
<text x="734" y="174" fill="#f8fafc" font-family="system-ui,sans-serif" font-size="15" font-weight="700">+50.9%</text>
<text x="28" y="233" fill="#e2e8f0" font-family="system-ui,sans-serif" font-size="16">Jari Litmanen</text>
<rect x="285" y="211" width="358" height="28" rx="7" fill="#22c55e"/>
<text x="653" y="232" fill="#f8fafc" font-family="system-ui,sans-serif" font-size="15" font-weight="700">+41.5%</text>
<text x="28" y="291" fill="#e2e8f0" font-family="system-ui,sans-serif" font-size="16">Mattéo Guendouzi</text>
<rect x="285" y="269" width="293" height="28" rx="7" fill="#22c55e"/>
<text x="588" y="290" fill="#f8fafc" font-family="system-ui,sans-serif" font-size="15" font-weight="700">+33.9%</text>
<text x="28" y="349" fill="#e2e8f0" font-family="system-ui,sans-serif" font-size="16">Josip Šutalo</text>
<rect x="285" y="327" width="273" height="28" rx="7" fill="#22c55e"/>
<text x="568" y="348" fill="#f8fafc" font-family="system-ui,sans-serif" font-size="15" font-weight="700">+31.6%</text>
<text x="28" y="407" fill="#e2e8f0" font-family="system-ui,sans-serif" font-size="16">Deniz Undav</text>
<rect x="285" y="385" width="259" height="28" rx="7" fill="#22c55e"/>
<text x="554" y="406" fill="#f8fafc" font-family="system-ui,sans-serif" font-size="15" font-weight="700">+30.0%</text>
</svg>
